<?xml version="1.0" encoding="utf-8"?>
<!-- Generator: Adobe Illustrator 27.2.0, SVG Export Plug-In . SVG Version: 6.00 Build 0)  -->
<svg version="1.1" id="Layer_1" xmlns="http://www.w3.org/2000/svg" xmlns:xlink="http://www.w3.org/1999/xlink" x="0px" y="0px"
	 viewBox="0 0 255 236.4" style="enable-background:new 0 0 255 236.4;" xml:space="preserve">
<style type="text/css">
	.st0{fill:#E2761B;stroke:#E2761B;stroke-linecap:round;stroke-linejoin:round;}
	.st1{fill:#E4761B;stroke:#E4761B;stroke-linecap:round;stroke-linejoin:round;}
	.st2{fill:#D7C1B3;stroke:#D7C1B3;stroke-linecap:round;stroke-linejoin:round;}
	.st3{fill:#233447;stroke:#233447;stroke-linecap:round;stroke-linejoin:round;}
	.st4{fill:#CD6116;stroke:#CD6116;stroke-linecap:round;stroke-linejoin:round;}
	.st5{fill:#E4751F;stroke:#E4751F;stroke-linecap:round;stroke-linejoin:round;}
	.st6{fill:#F6851B;stroke:#F6851B;stroke-linecap:round;stroke-linejoin:round;}
	.st7{fill:#C0AD9E;stroke:#C0AD9E;stroke-linecap:round;stroke-linejoin:round;}
	.st8{fill:#161616;stroke:#161616;stroke-linecap:round;stroke-linejoin:round;}
	.st9{fill:#763D16;stroke:#763D16;stroke-linecap:round;stroke-linejoin:round;}
</style>
<path class="st0" d="M242.3,0l-99.5,73.9l18.4-43.6L242.3,0z"/>
<path class="st1" d="M12.6,0l98.7,74.6L93.8,30.3L12.6,0z M206.5,171.3L180,211.9l56.7,15.6l16.3-55.3L206.5,171.3z M2.1,172.2
	l16.2,55.3L75,211.9l-26.5-40.6L2.1,172.2z"/>
<path class="st1" d="M71.8,102.7L56,126.6l56.3,2.5l-2-60.5L71.8,102.7z M183.1,102.7l-39-34.8l-1.3,61.2l56.2-2.5L183.1,102.7z
	 M75,211.9l33.8-16.5l-29.2-22.8L75,211.9z M146.1,195.4l33.9,16.5l-4.7-39.3L146.1,195.4z"/>
<path class="st2" d="M180,211.9l-33.9-16.5l2.7,22.1l-0.3,9.3L180,211.9z M75,211.9l31.5,14.9l-0.2-9.3l2.5-22.1L75,211.9z"/>
<path class="st3" d="M107,158l-28.2-8.3l19.9-9.1L107,158z M147.9,158l8.3-17.4l20,9.1L147.9,158z"/>
<path class="st4" d="M75,211.9l4.8-40.6l-31.3,0.9L75,211.9z M175.2,171.3l4.8,40.6l26.5-39.7L175.2,171.3z M199,126.6l-56.2,2.5
	L148,158l8.3-17.4l20,9.1L199,126.6z M78.8,149.7l20-9.1L107,158l5.3-28.9L56,126.6L78.8,149.7z"/>
<path class="st5" d="M56,126.6l23.6,46l-0.8-22.9L56,126.6z M176.3,149.7l-1,22.9l23.7-46L176.3,149.7z M112.3,129.1L107,158
	l6.6,34.1l1.5-44.9L112.3,129.1z M142.8,129.1l-2.7,18l1.2,45L148,158L142.8,129.1z"/>
<path class="st6" d="M148,158l-6.7,34.1l4.8,3.3l29.2-22.8l1-22.9L148,158z M78.8,149.7l0.8,22.9l29.2,22.8l4.8-3.3L107,158
	L78.8,149.7z"/>
<path class="st7" d="M148.5,226.8l0.3-9.3l-2.5-2.2h-37.7l-2.3,2.2l0.2,9.3L75,211.9l11,9l22.3,15.5h38.3l22.4-15.5l11-9
	L148.5,226.8z"/>
<path class="st8" d="M146.1,195.4l-4.8-3.3h-27.7l-4.8,3.3l-2.5,22.1l2.3-2.2h37.7l2.5,2.2L146.1,195.4z"/>
<path class="st9" d="M246.5,78.7l8.5-40.8L242.3,0l-96.2,71.4l37,31.3l52.3,15.3l11.6-13.5l-5-3.6l8-7.3l-6.2-4.8l8-6.1L246.5,78.7z
	 M0,37.9l8.5,40.8l-5.4,4l8,6.1L5,93.6l8,7.3l-5,3.6L19.5,118l52.3-15.3l37-31.3L12.6,0L0,37.9z"/>
<path class="st6" d="M235.4,118l-52.3-15.3l15.9,23.9l-23.7,46l31.2-0.4H253L235.4,118z M71.8,102.7L19.5,118L2.1,172.2h46.4
	l31.1,0.4l-23.6-46L71.8,102.7z M142.8,129.1l3.3-57.7l15.2-41.1H93.8l15,41.1l3.5,57.7l1.2,18.2l0.1,44.8h27.7l0.2-44.8
	L142.8,129.1z"/>
</svg>
